<svg width="171" height="41" viewBox="0 0 171 41" fill="none" xmlns="http://www.w3.org/2000/svg">
<path fill-rule="evenodd" clip-rule="evenodd" d="M13.2559 35.2325V25.3515C12.8282 25.6764 12.302 25.8452 11.7648 25.8299C11.2721 25.8177 10.7948 25.6556 10.3968 25.3652V35.2325C10.3968 35.6114 10.5474 35.9746 10.8155 36.2425C11.0836 36.5104 11.4472 36.6607 11.8264 36.6607C12.2055 36.6607 12.5691 36.5104 12.8372 36.2425C13.1053 35.9746 13.2559 35.6114 13.2559 35.2325ZM24.4638 22.8954C24.7203 22.6392 25.0683 22.4952 25.4311 22.4952C25.6267 22.4772 25.8239 22.5017 26.0093 22.5666C26.1946 22.6317 26.3639 22.7357 26.5053 22.8719C26.6468 23.008 26.7572 23.1731 26.8292 23.3557C26.9012 23.5383 26.9328 23.7342 26.9222 23.9302V25.5839C26.9222 25.9628 26.7716 26.326 26.5035 26.5938C26.2355 26.8617 25.8718 27.012 25.4927 27.012C25.1136 27.012 24.7499 26.8617 24.4819 26.5938C24.2138 26.326 24.0631 25.9628 24.0631 25.5839V23.8619C24.0631 23.4995 24.2073 23.1519 24.4638 22.8954ZM5.92346 28.6315C6.32268 28.9197 6.7992 29.0815 7.29146 29.0962C7.82247 29.1273 8.34954 28.9884 8.79626 28.6999V38.5399C8.79626 38.9205 8.64493 39.2855 8.37555 39.5546C8.10617 39.8237 7.74082 39.9749 7.35986 39.9749C6.97889 39.9749 6.61355 39.8237 6.34417 39.5546C6.0748 39.2855 5.92346 38.9205 5.92346 38.5399V28.6315ZM20.427 19.6134C20.6009 19.5488 20.7861 19.5203 20.9714 19.5295L20.903 19.5569C21.0997 19.5369 21.2984 19.5596 21.4855 19.6236C21.6725 19.6877 21.8435 19.7916 21.9865 19.9279C22.1295 20.0644 22.2413 20.2301 22.314 20.4138C22.3868 20.5974 22.4188 20.7947 22.4078 20.9919V28.5085C22.4078 28.8891 22.2565 29.2542 21.9872 29.5233C21.7177 29.7923 21.3524 29.9435 20.9714 29.9435C20.5905 29.9435 20.2252 29.7923 19.9557 29.5233C19.6864 29.2542 19.535 28.8891 19.535 28.5085V20.8962C19.5349 20.7108 19.5723 20.5274 19.6453 20.357C19.7184 20.1865 19.8252 20.0328 19.9596 19.9048C20.094 19.7771 20.2529 19.6778 20.427 19.6134ZM14.9933 21.9895C15.4128 22.2885 15.9144 22.4508 16.4297 22.4542L16.3613 22.4815C16.9023 22.4947 17.4321 22.3262 17.8661 22.0032V31.9252C17.8661 32.3058 17.7147 32.6709 17.4454 32.9399C17.1759 33.209 16.8107 33.3602 16.4297 33.3602C16.0487 33.3602 15.6834 33.209 15.414 32.9399C15.1446 32.6709 14.9933 32.3058 14.9933 31.9252V21.9895ZM4.1861 2.30957V30.0665C4.1861 30.4073 4.05062 30.7341 3.80946 30.975C3.5683 31.2159 3.24122 31.3512 2.90018 31.3512H2.59922C2.25816 31.3512 1.93109 31.2159 1.68993 30.975C1.44877 30.7341 1.31329 30.4073 1.31329 30.0665V2.30957C1.3169 1.97124 1.45397 1.64798 1.69474 1.41001C1.9355 1.17203 2.26052 1.03856 2.59922 1.03857H2.90018C3.23886 1.03856 3.56388 1.17203 3.80465 1.41001C4.04542 1.64798 4.18249 1.97124 4.1861 2.30957ZM7.14098 28.0439H7.44194V28.0712C7.78298 28.0712 8.11006 27.9359 8.35122 27.695C8.59238 27.4541 8.72786 27.1273 8.72786 26.7865V5.6169C8.72425 5.27857 8.58718 4.95532 8.34641 4.71733C8.10564 4.47936 7.78062 4.34589 7.44194 4.3459H7.14098C6.80228 4.34589 6.47726 4.47936 6.2365 4.71733C5.99573 4.95532 5.85865 5.27857 5.85506 5.6169V26.7592C5.85506 27.1 5.99053 27.4268 6.23169 27.6677C6.47285 27.9086 6.79992 28.0439 7.14098 28.0439ZM11.6554 24.7912H11.97C12.3074 24.7912 12.631 24.6574 12.8696 24.4189C13.1082 24.1806 13.2423 23.8574 13.2423 23.5202V8.8969C13.2423 8.55855 13.1087 8.23385 12.8705 7.99332C12.6323 7.75278 12.3087 7.61584 11.97 7.61224H11.6554C11.4872 7.61224 11.3206 7.64555 11.1653 7.71028C11.0101 7.77501 10.8692 7.86985 10.7509 7.98934C10.6326 8.1088 10.5391 8.25054 10.476 8.40632C10.4129 8.56211 10.3813 8.72886 10.3831 8.8969V23.5202C10.3831 23.8574 10.5172 24.1806 10.7558 24.4189C10.9944 24.6574 11.318 24.7912 11.6554 24.7912ZM16.2108 21.4429H16.4981H16.5118C16.6818 21.4429 16.8501 21.4092 17.0071 21.3438C17.164 21.2783 17.3064 21.1825 17.4259 21.0619C17.5455 20.9411 17.64 20.7978 17.7038 20.6404C17.7676 20.4829 17.7996 20.3145 17.7977 20.1445V12.2179C17.7977 11.8772 17.6623 11.5504 17.4211 11.3095C17.1799 11.0686 16.8528 10.9332 16.5118 10.9332H16.2108C16.0348 10.9329 15.8606 10.9686 15.699 11.0382C15.5374 11.1079 15.3918 11.2099 15.2712 11.338C15.1507 11.4662 15.0578 11.6176 14.9982 11.7831C14.9386 11.9485 14.9137 12.1244 14.9249 12.2999V20.1719C14.9285 20.5103 15.0656 20.8335 15.3063 21.0715C15.5471 21.3094 15.8721 21.4429 16.2108 21.4429ZM20.7389 18.5045H21.0398H21.0535C21.3923 18.5009 21.7158 18.3641 21.954 18.1236C22.1922 17.883 22.3258 17.5583 22.3258 17.2199V15.1836C22.3222 14.8452 22.185 14.522 21.9443 14.284C21.7035 14.046 21.3786 13.9126 21.0398 13.9126H20.7389C20.4001 13.9126 20.0752 14.046 19.8345 14.284C19.5937 14.522 19.4566 14.8452 19.453 15.1836V17.2199C19.453 17.5607 19.5884 17.8875 19.8297 18.1283C20.0708 18.3692 20.3979 18.5045 20.7389 18.5045ZM76.567 20.8553C77.1005 20.8553 77.2236 21.033 77.2236 21.5113V24.108C77.2381 24.7198 77.1153 25.3269 76.8645 25.885C76.6135 26.443 76.2409 26.938 75.7735 27.3333C74.6131 28.2565 73.1499 28.7147 71.6695 28.618C68.1264 28.618 66.1975 26.7183 66.1975 23.5613V19.3247C66.1975 16.2087 68.1948 14.2954 71.6695 14.2954C74.4055 14.2954 76.1839 15.3751 76.9363 17.5343C76.9784 17.6155 77.0009 17.7053 77.0021 17.7967C77.0035 17.8881 76.9833 17.9785 76.9435 18.0609C76.9036 18.143 76.8452 18.2149 76.7727 18.2706C76.7002 18.3263 76.6157 18.3644 76.5259 18.3817L75.4589 18.7507C74.9938 18.9147 74.8022 18.819 74.6381 18.3407C74.4115 17.7569 73.9965 17.2654 73.4589 16.9436C72.9212 16.6218 72.2916 16.4883 71.6695 16.5641C69.6585 16.5641 68.5641 17.5343 68.5641 19.2973V23.6433C68.5641 25.4337 69.6722 26.3767 71.6695 26.3767C73.6668 26.3767 74.898 25.461 74.898 24.1217V23.1103H71.9294C71.437 23.1103 71.2591 22.919 71.2591 22.4407V21.5113C71.2591 21.033 71.437 20.8553 71.9294 20.8553H76.567ZM54.8021 14.3499C51.3274 14.3499 49.3301 16.2495 49.3301 19.4065V23.6158C49.3301 26.7728 51.341 28.6725 54.8021 28.6725C58.2631 28.6725 60.2741 26.7728 60.2741 23.6158V19.4065C60.2741 16.2495 58.2768 14.3499 54.8021 14.3499ZM54.8705 16.6732C56.8678 16.6732 57.9758 17.6298 57.9758 19.4065V23.6432C57.9758 25.3925 56.8678 26.3765 54.8705 26.3765C52.8732 26.3765 51.7788 25.4335 51.7788 23.6432V19.4065C51.7788 17.6435 52.8732 16.6732 54.8705 16.6732ZM38.2493 15.293C38.2493 14.8146 38.0851 14.637 37.5927 14.637H36.4846C36.0058 14.637 35.8143 14.8146 35.8143 15.293V27.7296C35.8143 28.208 36.0058 28.3856 36.4846 28.3856H43.8171C44.2959 28.3856 44.4737 28.208 44.4737 27.7296V26.773C44.4737 26.2946 44.2959 26.117 43.8171 26.117H38.2493V15.293ZM88.3455 14.3499C84.8708 14.3499 82.8735 16.2495 82.8735 19.4065V23.6158C82.8735 26.7728 84.8844 28.6725 88.3455 28.6725C91.8065 28.6725 93.8175 26.7728 93.8175 23.6158V19.4065C93.8175 16.2495 91.8202 14.3499 88.3455 14.3499ZM88.4139 16.6732C90.3975 16.6732 91.5056 17.6298 91.5056 19.4065V23.6432C91.5056 25.3925 90.4111 26.3765 88.4139 26.3765C86.4166 26.3765 85.3085 25.4335 85.3085 23.6432V19.4065C85.3085 17.6435 86.4303 16.6732 88.4139 16.6732ZM100.261 15.0333C100.261 14.7326 100.356 14.637 100.657 14.637H101.287C101.588 14.637 101.656 14.7326 101.656 15.0333V27.9893C101.656 28.29 101.656 28.3856 101.287 28.3856H100.657C100.356 28.3856 100.261 28.29 100.261 27.9893V15.0333ZM117.156 15.8939C116.35 15.0891 115.258 14.637 114.119 14.637H109.016C108.729 14.637 108.619 14.7326 108.619 15.0333V27.9893C108.619 28.29 108.729 28.3856 109.016 28.3856H109.659C109.946 28.3856 110.015 28.29 110.015 27.9893V23.2196H114.119C115.258 23.2196 116.35 22.7675 117.156 21.9627C117.961 21.158 118.414 20.0664 118.414 18.9283C118.414 17.7902 117.961 16.6986 117.156 15.8939ZM115.137 21.6398C114.775 21.7896 114.387 21.8666 113.995 21.8666H109.891V15.908H113.995C114.387 15.908 114.775 15.985 115.137 16.1348C115.499 16.2845 115.827 16.5039 116.104 16.7806C116.381 17.0572 116.601 17.3857 116.751 17.7472C116.901 18.1087 116.978 18.4961 116.978 18.8873C116.978 19.2785 116.901 19.666 116.751 20.0275C116.601 20.3889 116.381 20.7173 116.104 20.994C115.827 21.2706 115.499 21.4901 115.137 21.6398ZM129.098 14.3638C130.154 14.2473 131.22 14.4743 132.137 15.0111C133.054 15.5478 133.773 16.3656 134.187 17.3432C134.297 17.5618 134.187 17.7395 133.968 17.8488L133.366 18.1222C133.12 18.2178 133.024 18.2042 132.874 17.9445C132.564 17.219 132.031 16.6108 131.352 16.2079C130.674 15.805 129.884 15.6282 129.098 15.7031C126.786 15.7031 125.528 16.6188 125.528 18.2588C125.514 18.7601 125.683 19.2492 126.002 19.6359C126.321 20.0227 126.77 20.2812 127.265 20.3635C128.001 20.6032 128.764 20.7501 129.536 20.8008C130.471 20.8505 131.393 21.0395 132.272 21.3612C132.946 21.5742 133.526 22.0124 133.914 22.6021C134.303 23.192 134.477 23.8975 134.406 24.6002C134.406 27.1558 132.546 28.7002 129.126 28.7002C128.004 28.8283 126.872 28.5686 125.919 27.9644C124.965 27.36 124.248 26.4476 123.886 25.3792C123.862 25.3303 123.849 25.277 123.848 25.2227C123.847 25.1682 123.858 25.1144 123.88 25.0647C123.902 25.0151 123.935 24.971 123.976 24.9355C124.018 24.9002 124.066 24.8742 124.119 24.8598L124.721 24.6412C124.768 24.6217 124.819 24.6125 124.87 24.6138C124.921 24.6152 124.972 24.6272 125.018 24.649C125.064 24.6709 125.105 24.7022 125.139 24.7408C125.173 24.7794 125.198 24.8246 125.213 24.8735C125.519 25.6455 126.063 26.3001 126.767 26.7424C127.47 27.1847 128.296 27.3918 129.126 27.3335C131.711 27.3335 132.983 26.4315 132.983 24.6002C133.007 24.1188 132.86 23.6444 132.567 23.2615C132.274 22.8787 131.854 22.612 131.383 22.5092C130.675 22.2982 129.945 22.1697 129.208 22.1265L127.73 21.9352C127.268 21.8371 126.811 21.7139 126.362 21.5662C125.919 21.4322 125.505 21.2143 125.145 20.9238C124.782 20.5955 124.496 20.1915 124.307 19.7403C124.117 19.2893 124.03 18.8021 124.05 18.3135C124.146 15.9218 125.938 14.3638 129.098 14.3638ZM142.968 26.2497C142.263 25.586 141.838 24.678 141.78 23.7116V15.0333C141.78 14.7326 141.684 14.637 141.396 14.637H140.754C140.466 14.637 140.37 14.7326 140.37 15.0333V23.698C140.37 26.8003 142.204 28.6726 145.583 28.6726C148.962 28.6726 150.795 26.8003 150.795 23.698V15.0333C150.795 14.7326 150.699 14.637 150.398 14.637H149.769C149.468 14.637 149.372 14.7326 149.372 15.0333V23.7116C149.314 24.678 148.889 25.586 148.183 26.2497C147.477 26.9136 146.545 27.2833 145.576 27.2833C144.607 27.2833 143.674 26.9136 142.968 26.2497ZM169.673 14.6371C169.974 14.6371 170.07 14.7328 170.07 15.0335V27.9894C170.07 28.2901 169.974 28.3857 169.673 28.3857H169.098C168.811 28.3857 168.715 28.2901 168.715 27.9894V20.1037C168.715 18.9564 168.793 17.8103 168.948 16.6735H168.866C168.439 17.7131 167.94 18.7222 167.375 19.6937L164.434 24.8734C164.398 24.9633 164.335 25.0401 164.255 25.0938C164.174 25.1476 164.079 25.1754 163.982 25.1741H163.599C163.501 25.1746 163.404 25.1464 163.322 25.0929C163.239 25.0396 163.174 24.9633 163.134 24.8734L160.152 19.6391C159.622 18.6814 159.165 17.6856 158.784 16.6598H158.702C158.842 17.8071 158.915 18.9617 158.921 20.1174V27.9894C158.921 28.2901 158.825 28.3857 158.524 28.3857H157.99C157.689 28.3857 157.594 28.2901 157.594 27.9894V15.0335C157.594 14.7328 157.689 14.6371 157.99 14.6371H158.483C158.595 14.6266 158.708 14.6512 158.806 14.7075C158.904 14.7638 158.982 14.849 159.03 14.9515L163.818 23.4521L168.579 15.0335C168.729 14.7465 168.811 14.7055 169.112 14.7055L169.673 14.6371Z" fill="white"/>
</svg>
